<?xml version="1.0" encoding="utf-8"?>
<!-- Generator: Adobe Illustrator 25.1.0, SVG Export Plug-In . SVG Version: 6.00 Build 0)  -->
<svg version="1.1" id="Ebene_1" xmlns="http://www.w3.org/2000/svg" xmlns:xlink="http://www.w3.org/1999/xlink" x="0px" y="0px" viewBox="0 0 34 34" xml:space="preserve">
    <style type="text/css">
    .st0 {
        fill: #B1C4C4;
    }
    </style>
    <g>
        <path class="st0" d="M17,0C7.6,0,0,7.6,0,17s7.6,17,17,17s17-7.6,17-17S26.4,0,17,0z M17,33.3C8,33.3,0.7,26,0.7,17S8,0.7,17,0.7
		S33.3,8,33.3,17S26,33.3,17,33.3z" />
        <path class="st0" d="M17.6,16.4l4-9.8h-0.8l-1.3,3.2h-4.8l-1.3-3.2h-0.8l3.9,9.8H17.6z M19.2,10.6l-2.1,5.2L15,10.6H19.2z" />
        <path class="st0" d="M17.5,24l4.3-2.6v-0.8l-4.3,2.6c-0.1-1.1-0.8-2.6-2.7-2.6c-2,0-2.7,1.7-2.7,3.1v2.9h9.7v-0.7h-4.3V24z
		 M16.8,25.8h-4v-2.1c0-0.6,0.1-2.4,2-2.4c1.9,0,2,1.9,2,2.3V25.8z" />
    </g>
</svg>