<?xml version="1.0" encoding="utf-8"?>
<!-- Generator: Adobe Illustrator 25.1.0, SVG Export Plug-In . SVG Version: 6.00 Build 0)  -->
<svg version="1.1" id="Ebene_1" xmlns="http://www.w3.org/2000/svg" xmlns:xlink="http://www.w3.org/1999/xlink" x="0px" y="0px" viewBox="0 0 841.89 841.89" style="enable-background:new 0 0 841.89 841.89;" xml:space="preserve">
    <g>
        <path d="M419.13,281.81c-9.38,0-17.01,7.63-17.01,17.01c0,9.38,7.63,17.01,17.01,17.01c9.38,0,17.01-7.63,17.01-17.01
		C436.14,289.44,428.51,281.81,419.13,281.81z M419.13,315.13c-8.99,0-16.31-7.31-16.31-16.31s7.32-16.31,16.31-16.31
		c8.99,0,16.31,7.32,16.31,16.31S428.13,315.13,419.13,315.13z" />
        <path d="M419.72,298.24l3.96-9.78h-0.76l-1.3,3.22h-4.75l-1.31-3.22h-0.76l3.93,9.78H419.72z M421.33,292.38l-2.09,5.16l-2.09-5.16
		H421.33z" />
        <path d="M419.61,305.78l4.29-2.61v-0.82l-4.32,2.63c-0.12-1.1-0.78-2.57-2.67-2.57c-2,0-2.71,1.66-2.71,3.08v2.85h9.7v-0.7h-4.29
		V305.78z M418.91,307.63h-4.01v-2.15c0-0.56,0.14-2.38,2.01-2.38c1.9,0,2,1.89,2,2.26V307.63z" />
    </g>
</svg>