<svg id="Layer_1" data-name="Layer 1" xmlns="http://www.w3.org/2000/svg" xmlns:xlink="http://www.w3.org/1999/xlink" width="178.39" height="79.17" viewBox="0 0 178.39 79.17">
  <defs>
    <style>
      .cls-1 {
        fill: #231f20;
      }

      .cls-2 {
        fill: url(#linear-gradient);
      }
    </style>
    <linearGradient id="linear-gradient" x1="54.36" y1="65.47" x2="80.56" y2="17.08" gradientUnits="userSpaceOnUse">
      <stop offset="0"/>
      <stop offset="0.08" stop-color="#070707"/>
      <stop offset="0.2" stop-color="#1b1b1b"/>
      <stop offset="0.35" stop-color="#3c3c3c"/>
      <stop offset="0.51" stop-color="#6a6a6a"/>
      <stop offset="0.69" stop-color="#a5a5a5"/>
      <stop offset="0.88" stop-color="#ebebeb"/>
      <stop offset="0.94" stop-color="#fff"/>
    </linearGradient>
  </defs>
  <g>
    <path class="cls-1" d="M49.27,32.62c-1-3.4-1.7-5-3.17-6.69a12,12,0,0,0-9.52-4C27.41,22,22,29.22,22,41.68c0,12.23,4.79,17.81,13.85,17.81,4.42,0,8.58.06,10.84-3.12a32.42,32.42,0,0,0,3.06-4.93l20.73,3.49a33.8,33.8,0,0,1-4.76,11.21c-5.66,8.38-16,13-29.11,13-10.87,0-20.16-3.4-26.39-9.74C3.62,63,0,53,0,41.9,0,19.25,14.27,4.75,36.36,4.75c17.44,0,29.56,8.61,33.3,23.67Z"/>
    <path class="cls-1" d="M138,76.56a104.27,104.27,0,0,0-3.51-13.25l-6.91-22.65c-.57-1.93-1-3.4-1.25-4.42-.79,2.61-.79,2.83-1.36,4.42L118,63.31a122.1,122.1,0,0,0-3.51,13.25H95.26a131.15,131.15,0,0,0-3.4-13.25L79.17,22.2c-1.24-4-2.94-8.95-5.09-14.73H98.43a77.85,77.85,0,0,0,2.15,13.37l4.87,20.27c.57,2.72,1,4.53,1.13,5.44,1.36-4.42,1.36-4.42,1.59-5.44l6.34-20.61c3.06-10.65,3.06-10.65,3.51-13h16.54a107.59,107.59,0,0,0,3.4,13l6.57,21.4c.22.8.9,3.29,1.36,4.65.34-1.7.34-1.7,1-4.76l4.75-20A91.38,91.38,0,0,0,154,7.47h24.35c-1.69,4.3-3.39,9.4-5.09,14.73L160.61,63.31a94.81,94.81,0,0,0-3.4,13.25Z"/>
  </g>
  <polyline class="cls-2" points="65.69 66.14 98.43 7.47 78.17 0 43.54 62.06"/>
  <path class="cls-1" d="M74.41,83.92"/>
</svg>
